<svg width="20" height="20" viewBox="0 0 20 20" fill="none" xmlns="http://www.w3.org/2000/svg">
<g clip-path="url(#clip0_1976_92325)">
<path d="M1.66665 6.6665L1.66665 13.3332C1.66665 15.6902 1.66665 16.8687 2.39888 17.6009C3.13111 18.3332 4.30963 18.3332 6.66665 18.3332L7.49998 18.3332C9.85701 18.3332 11.0355 18.3332 11.7677 17.6009C12.4081 16.9606 12.4884 15.979 12.4985 14.1665M12.4985 5.83317C12.4884 4.02065 12.4081 3.03906 11.7678 2.39874C11.0355 1.6665 9.85701 1.6665 7.49998 1.6665L6.66665 1.6665C4.30963 1.6665 3.13112 1.6665 2.39888 2.39874C2.14905 2.64857 1.98446 2.95035 1.87603 3.33317" stroke="#FF0000" stroke-width="1.5" stroke-linecap="round"/>
<path d="M18.3335 10L7.50016 10M7.50016 10L10.4168 7.5M7.50016 10L10.4168 12.5" stroke="#FF0000" stroke-width="1.5" stroke-linecap="round" stroke-linejoin="round"/>
</g>
<defs>
<clipPath id="clip0_1976_92325">
<rect x="20" width="20" height="20" rx="5" transform="rotate(90 20 0)" fill="white"/>
</clipPath>
</defs>
</svg>
