<svg width="20" height="21" viewBox="0 0 20 21" fill="none" xmlns="http://www.w3.org/2000/svg">
<path d="M17.0832 9.91649V6.36651C17.0832 3.00818 16.2998 2.1665 13.1498 2.1665H6.84984C3.69984 2.1665 2.9165 3.00818 2.9165 6.36651V15.7498C2.9165 17.9665 4.13318 18.4915 5.60818 16.9082L5.6165 16.8998C6.29983 16.1748 7.34149 16.2332 7.93316 17.0248L8.77484 18.1498" stroke="#4C5BD4" stroke-width="1.5" stroke-linecap="round" stroke-linejoin="round"/>
<path d="M6.6665 6.3335H13.3332" stroke="#4C5BD4" stroke-width="1.5" stroke-linecap="round" stroke-linejoin="round"/>
<path d="M7.5 9.6665H12.5" stroke="#4C5BD4" stroke-width="1.5" stroke-linecap="round" stroke-linejoin="round"/>
<path d="M15.175 12.8086L12.225 15.7586C12.1084 15.8752 12 16.0919 11.975 16.2502L11.8167 17.3752C11.7584 17.7836 12.0417 18.0669 12.45 18.0086L13.575 17.8502C13.7334 17.8252 13.9584 17.7169 14.0667 17.6002L17.0167 14.6502C17.525 14.1419 17.7667 13.5502 17.0167 12.8002C16.275 12.0586 15.6834 12.3002 15.175 12.8086Z" stroke="#4C5BD4" stroke-width="1.5" stroke-miterlimit="10" stroke-linecap="round" stroke-linejoin="round"/>
<path d="M14.75 13.2334C15 14.1334 15.7 14.8334 16.6 15.0834" stroke="#4C5BD4" stroke-width="1.5" stroke-miterlimit="10" stroke-linecap="round" stroke-linejoin="round"/>
</svg>
