<svg width="20" height="20" viewBox="0 0 20 20" fill="none" xmlns="http://www.w3.org/2000/svg">
<circle cx="7.50016" cy="7.50016" r="1.66667" stroke="#4C5BD4"/>
<path d="M10.8332 12.5002C10.8332 13.4206 10.8332 14.1668 7.49984 14.1668C4.1665 14.1668 4.1665 13.4206 4.1665 12.5002C4.1665 11.5797 5.65889 10.8335 7.49984 10.8335C9.34079 10.8335 10.8332 11.5797 10.8332 12.5002Z" stroke="#4C5BD4"/>
<path d="M1.6665 10.0002C1.6665 6.85747 1.6665 5.28612 2.64281 4.30981C3.61913 3.3335 5.19047 3.3335 8.33317 3.3335H11.6665C14.8092 3.3335 16.3805 3.3335 17.3569 4.30981C18.3332 5.28612 18.3332 6.85747 18.3332 10.0002C18.3332 13.1429 18.3332 14.7142 17.3569 15.6905C16.3805 16.6668 14.8092 16.6668 11.6665 16.6668H8.33317C5.19047 16.6668 3.61913 16.6668 2.64281 15.6905C1.6665 14.7142 1.6665 13.1429 1.6665 10.0002Z" stroke="#4C5BD4" stroke-width="1.5"/>
<path d="M15.8335 10H12.5002" stroke="#4C5BD4" stroke-linecap="round"/>
<path d="M15.8335 7.5H11.6668" stroke="#4C5BD4" stroke-linecap="round"/>
<path d="M15.8335 12.5H13.3335" stroke="#4C5BD4" stroke-linecap="round"/>
</svg>
