<svg width="24" height="24" viewBox="0 0 24 24" fill="none" xmlns="http://www.w3.org/2000/svg">
<path d="M15.8293 15.6939C14.7111 16.812 14.8509 19.0682 14.8509 19.0682H9.18036C9.18036 19.0682 9.30016 16.812 8.20199 15.6939C6.98402 14.6157 6.20532 13.0583 6.20532 11.3212C6.20532 8.12648 8.801 5.53081 11.9957 5.53081C15.1903 5.53081 17.786 8.12648 17.786 11.3212C17.786 13.0583 17.0273 14.6157 15.8293 15.6939Z" fill="#4C5BD4"/>
<path d="M15.011 20.8454C15.011 21.1449 14.7714 21.3845 14.4719 21.3845H9.54008C9.24058 21.3845 9.00098 21.1449 9.00098 20.8454C9.00098 20.5459 9.24058 20.3063 9.54008 20.3063H14.4519C14.7514 20.3063 15.011 20.5459 15.011 20.8454Z" fill="#4C5BD4"/>
<path d="M14.2724 23.0814C14.2724 23.3809 14.0328 23.6205 13.7333 23.6205H10.2791C9.97959 23.6205 9.73999 23.3809 9.73999 23.0814C9.73999 22.7819 9.97959 22.5423 10.2791 22.5423H13.7333C14.0328 22.5423 14.2724 22.7819 14.2724 23.0814Z" fill="#4C5BD4"/>
<path d="M16.1293 15.8936C17.4271 14.7155 18.1659 13.0583 18.1659 11.3212C18.1659 7.92685 15.3905 5.15147 11.9961 5.15147C8.60179 5.15147 5.82642 7.92685 5.82642 11.3212C5.82642 13.0982 6.60512 14.7954 7.92292 15.9535C8.90129 16.9318 8.80146 19.0084 8.80146 19.0283C8.80146 19.1282 8.84139 19.228 8.90129 19.3079C8.98116 19.3877 9.08099 19.4277 9.18083 19.4277H14.8314C14.9312 19.4277 15.0311 19.3877 15.1109 19.3079C15.1908 19.228 15.2108 19.1282 15.2108 19.0283C15.2108 19.0084 15.1109 16.9318 16.0893 15.9535C16.1093 15.9335 16.1293 15.9135 16.1293 15.8936ZM15.5702 15.3944C15.5302 15.4144 15.5103 15.4543 15.4903 15.4942C14.6118 16.4327 14.472 17.9701 14.452 18.6889H9.56019C9.54023 17.9501 9.38049 16.3528 8.44206 15.4144C7.26402 14.3761 6.58515 12.8986 6.58515 11.3412C6.58515 8.34615 9.02109 5.93018 11.9961 5.93018C14.9911 5.93018 17.4071 8.36612 17.4071 11.3412C17.4071 12.8786 16.7482 14.3761 15.5702 15.3944Z" fill="#4C5BD4"/>
<path d="M15.3908 20.8451C15.3908 20.326 14.9715 19.9266 14.4723 19.9266H9.54054C9.0214 19.9266 8.62207 20.3459 8.62207 20.8451C8.62207 21.3642 9.04137 21.7636 9.54054 21.7636H14.4524C14.9715 21.7636 15.3908 21.3642 15.3908 20.8451ZM14.4524 21.0048H9.54054C9.44071 21.0048 9.38081 20.925 9.38081 20.8451C9.38081 20.7453 9.46067 20.6854 9.54054 20.6854H14.4524C14.5522 20.6854 14.6121 20.7652 14.6121 20.8451C14.6321 20.9449 14.5522 21.0048 14.4524 21.0048Z" fill="#4C5BD4"/>
<path d="M13.7337 22.1629H10.2794C9.7603 22.1629 9.36096 22.5822 9.36096 23.0814C9.36096 23.6006 9.78026 23.9999 10.2794 23.9999H13.7337C14.2528 23.9999 14.6521 23.5806 14.6521 23.0814C14.6521 22.5822 14.2328 22.1629 13.7337 22.1629ZM13.7337 23.2412H10.2794C10.1796 23.2412 10.1197 23.1613 10.1197 23.0814C10.1197 22.9816 10.1996 22.9217 10.2794 22.9217H13.7337C13.8335 22.9217 13.8934 23.0016 13.8934 23.0814C13.8934 23.1813 13.8335 23.2412 13.7337 23.2412Z" fill="#4C5BD4"/>
<path d="M12.3756 2.93511V0.379368C12.3756 0.179701 12.2158 0 11.9962 0C11.7965 0 11.6168 0.159734 11.6168 0.379368V2.95508C11.6168 3.15474 11.7766 3.33444 11.9962 3.33444C12.2158 3.31448 12.3756 3.15474 12.3756 2.93511Z" fill="#4C5BD4"/>
<path d="M18.2859 1.89685C18.1062 1.77705 17.8866 1.83695 17.7668 1.99668L16.3491 4.13312C16.2293 4.31282 16.2892 4.53246 16.449 4.65226C16.5089 4.69219 16.5887 4.71216 16.6486 4.71216C16.7684 4.71216 16.8882 4.65226 16.9681 4.55242L18.3857 2.41598C18.5055 2.25625 18.4456 2.01665 18.2859 1.89685Z" fill="#4C5BD4"/>
<path d="M7.48356 4.63231C7.54346 4.63231 7.62333 4.61234 7.68323 4.57241C7.86293 4.45261 7.90286 4.23297 7.80303 4.05327L6.42533 1.89687C6.30553 1.71717 6.08589 1.67724 5.90619 1.77707C5.72649 1.89687 5.68656 2.1165 5.78639 2.2962L7.16409 4.45261C7.24396 4.57241 7.36376 4.63231 7.48356 4.63231Z" fill="#4C5BD4"/>
<path d="M2.19261 6.42927L4.44885 7.64724C4.50875 7.68717 4.56865 7.68717 4.62855 7.68717C4.76832 7.68717 4.88812 7.6073 4.96799 7.4875C5.06782 7.3078 5.00792 7.0682 4.80825 6.96837L2.55201 5.7504C2.37231 5.65056 2.13271 5.71046 2.03288 5.91013C1.95301 6.1098 2.01291 6.32943 2.19261 6.42927Z" fill="#4C5BD4"/>
<path d="M19.3638 7.70721C19.4237 7.70721 19.4836 7.68724 19.5435 7.66727L21.7997 6.4493C21.9794 6.34947 22.0593 6.12984 21.9594 5.93017C21.8596 5.75047 21.64 5.6706 21.4403 5.77043L19.1841 6.9884C19.0044 7.08824 18.9245 7.30787 19.0243 7.50754C19.0842 7.62734 19.224 7.70721 19.3638 7.70721Z" fill="#4C5BD4"/>
</svg>
